<mxfile host="app.diagrams.net" modified="2024-06-09T15:09:30.763Z" agent="Mozilla/5.0 (Windows NT 10.0; Win64; x64; rv:126.0) Gecko/20100101 Firefox/126.0" version="24.5.2" etag="Gt6apegyZGuK3cUHn-uP" type="github">
  <diagram name="Page-1" id="yGWgW62BLkBmrtPPYaUs">
    <mxGraphModel>
      <root>
        <mxCell id="0" />
        <mxCell id="1" parent="0" />
      </root>
    </mxGraphModel>
  </diagram>
</mxfile>
